<svg xmlns="http://www.w3.org/2000/svg" width="820" height="280" viewBox="0 0 820 280">
  <rect width="100%" height="100%" fill="#ffffff"/>
  <style>
    .edge { stroke: #1f2a44; stroke-width: 3; fill: none; }
    .sq { stroke: #7a6648; stroke-width: 2.5; fill: #efe4cf; }
    .lbl { font: 20px 'Times New Roman', serif; fill: #1f2a44; }
    .cap { font: 15px 'Times New Roman', serif; fill: #47506a; }
  </style>

  <!-- Left panel: S1 -->
  <g transform="translate(0,0)">
    <polyline class="edge" points="60,40 60,220 320,220 60,40"/>
    <polyline class="sq" points="60,125 155,125 155,220 60,220 60,125"/>
    <text class="lbl" x="47" y="35">A</text>
    <text class="lbl" x="327" y="228">B</text>
    <text class="lbl" x="45" y="238">C</text>
    <text class="lbl" x="99" y="182">S₁</text>
    <text class="cap" x="126" y="258">Figure 1</text>
  </g>

  <!-- Right panel: S2 (schematic reconstruction) -->
  <g transform="translate(360,0)">
    <polyline class="edge" points="60,40 60,220 320,220 60,40"/>
    <polyline class="sq" points="150,102 208,142 168,200 110,160 150,102"/>
    <text class="lbl" x="47" y="35">A</text>
    <text class="lbl" x="327" y="228">B</text>
    <text class="lbl" x="45" y="238">C</text>
    <text class="lbl" x="148" y="162">S₂</text>
    <text class="cap" x="126" y="258">Figure 2</text>
  </g>

  <text class="cap" x="242" y="20">Schematic reconstruction (not to scale)</text>
</svg>
